<?xml version="1.0" encoding="utf-8"?>
<!-- Uploaded to: SVG Repo, www.svgrepo.com, Generator: SVG Repo Mixer Tools -->
<svg fill="#000000" version="1.1" id="Layer_1" xmlns="http://www.w3.org/2000/svg" xmlns:xlink="http://www.w3.org/1999/xlink" 
	 width="800px" height="800px" viewBox="0 0 202 256" enable-background="new 0 0 202 256" xml:space="preserve">
<path d="M108.856,39.664c0.158,0.029,0.315,0.044,0.472,0.062c1.44,4.056,3.228,7.935,5.345,11.592l-4.533,5.396l-63.673-7.203
	L51.77,2l64.118,7.107l13.048,25.568l-10.864,12.671c-1.527-2.81-2.854-5.749-3.961-8.802c1.496-1.025,2.6-2.622,2.953-4.546
	c0.702-3.831-1.834-7.506-5.665-8.208c-3.831-0.702-7.506,1.834-8.208,5.665C102.489,35.287,105.025,38.961,108.856,39.664z
	 M120.833,60.277c-12.42,5.499-19.69,11.953-26.591,21.961c-20.809-1.503-44.855,11.052-60.921,33.989
	c-15.432,22.03-19.683,49.046-12.56,66.937c-4.057,1.6-7.752,4.103-10.749,7.377c-5.47,5.973-8.197,14.05-7.481,22.16
	c1.305,14.775,14.186,26.347,29.327,26.347l79.777,0.015c4.117,0,7.468,3.35,7.468,7.468c0,4.124,3.344,7.468,7.468,7.468
	s7.468-3.344,7.468-7.468c0-11.649-8.937-21.251-20.315-22.307l-0.204-0.112H31.857c-7.472,0-13.819-5.59-14.449-12.725
	c-0.354-4.005,0.931-7.826,3.618-10.76c2.251-2.458,5.195-3.978,8.426-4.412c9.268,9.522,20.386,13.27,21.885,13.27l48.153-0.268
	c4.119-0.023,7.448-3.37,7.448-7.489c0-4.137-3.353-7.489-7.489-7.489H80.8c0,0,10.118-8.6,14.841-13.47
	c0.055-0.057,0.096-0.112,0.146-0.168c3.235-3.18,5.61-7.231,6.715-11.786c1.068-4.952,0.773-10.779-1.924-16.938
	c-3.126-6.22-8.417-11.255-15.646-12.788c-0.938-0.199-3.927-0.372-6.817-0.353c-0.064,0-11.864-0.019-11.864-0.019
	c-2.062,0-3.934-1.873-3.934-3.934s1.873-3.934,3.934-3.934c0,0,11.647,0,11.803,0c19.426,0,28.362,10.577,32.13,24.18
	c1.102,3.987,13.309,50.036,13.309,50.036c0.671,2.428,2.88,4.111,5.4,4.111h15.386c4.124,0,7.468-3.344,7.468-7.468
	c0-4.124-3.344-7.468-7.468-7.468h-7.468l-0.01-44.743c18.876-9.428,29.882-24.038,29.882-52.341c0-4.032,0-7.982,0-11.417
	C148.417,83.499,132.059,74.133,120.833,60.277z M166.682,80.791c0-3.682,0-6.04,0-6.04h23.337c3.435,0,7.207-2.232,8.075-5.564
	l1.241-5.965c0.709-2.726-0.141-5.62-2.231-7.524l-19.333-17.373c-3.435-3.109-7.87-4.658-12.49-4.658h-1.717
	c-0.092,0-11.819-10.304-20.252-17.67c-2.538-2.217-6.502-0.412-6.502,2.958v19.829c0,0.014-8.453,11.909-12.64,17.801
	C134.495,69.645,149.677,78.546,166.682,80.791z"/>
</svg>