<?xml version="1.0" encoding="iso-8859-1"?>
<!-- Uploaded to: SVG Repo, www.svgrepo.com, Generator: SVG Repo Mixer Tools -->
<svg fill="#000000" height="800px" width="800px" version="1.1" id="Layer_1" xmlns="http://www.w3.org/2000/svg" xmlns:xlink="http://www.w3.org/1999/xlink" 
	 viewBox="0 0 512 512" xml:space="preserve">
<g>
	<g>
		<path d="M512,320v-40c0-49.029-29.57-91.259-71.8-109.859C455.061,152.152,464,129.101,464,104C464,46.654,417.346,0,360,0
			c-57.346,0-104,46.654-104,104c0,25.101,8.939,48.152,23.8,66.141c-23.685,10.432-43.368,28.298-56.101,50.632
			C205.026,202.968,179.778,192,152,192c-57.346,0-104,46.654-104,104c0,25.101,8.939,48.152,23.8,66.141
			C29.57,380.742,0,422.971,0,472v40h304v-40c0-49.029-29.57-91.258-71.8-109.859c9.97-12.067,17.245-26.426,20.973-42.141H512z
			 M360,48c30.878,0,56,25.122,56,56s-25.122,56-56,56s-56-25.122-56-56S329.122,48,360,48z M328,208h64
			c36.997,0,67.565,28.051,71.558,64H256.442C260.434,236.051,291.003,208,328,208z M152,240c30.878,0,56,25.122,56,56
			s-25.122,56-56,56s-56-25.122-56-56S121.122,240,152,240z M255.558,464H48.442c3.994-35.949,34.562-64,71.558-64h64
			C220.997,400,251.566,428.051,255.558,464z"/>
	</g>
</g>
</svg>