<?xml version="1.0" ?>
<!DOCTYPE svg  PUBLIC '-//W3C//DTD SVG 1.1//EN'  'http://www.w3.org/Graphics/SVG/1.1/DTD/svg11.dtd'>
<!-- Uploaded to: SVG Repo, www.svgrepo.com, Generator: SVG Repo Mixer Tools -->
<svg fill="#000000" width="800px" height="800px" viewBox="0 0 32 32" style="fill-rule:evenodd;clip-rule:evenodd;stroke-linejoin:round;stroke-miterlimit:2;" version="1.1" xml:space="preserve" xmlns="http://www.w3.org/2000/svg" xmlns:serif="http://www.serif.com/" xmlns:xlink="http://www.w3.org/1999/xlink">
<g id="Layer1">
<path d="M16,6l-13,0c-0.552,0 -1,0.448 -1,1l0,22c0,0.552 0.448,1 1,1l22,0c0.552,0 1,-0.448 1,-1l0,-13c0,-0.552 -0.448,-1 -1,-1c-0.552,-0 -1,0.448 -1,1l0,12c0,0 -20,0 -20,0c0,0 0,-20 0,-20c-0,0 12,0 12,0c0.552,0 1,-0.448 1,-1c0,-0.552 -0.448,-1 -1,-1Zm-9,19l14,-0c0.552,0 1,-0.448 1,-1c0,-0.552 -0.448,-1 -1,-1l-14,0c-0.552,0 -1,0.448 -1,1c0,0.552 0.448,1 1,1Zm-0,-4l4,0c0.552,-0 1,-0.448 1,-1c-0,-0.552 -0.448,-1 -1,-1l-4,0c-0.552,-0 -1,0.448 -1,1c-0,0.552 0.448,1 1,1Zm22.707,-13.293c0.391,-0.39 0.391,-1.024 0,-1.414l-4,-4c-0.39,-0.391 -1.024,-0.391 -1.414,-0l-10,10c-0.14,0.139 -0.235,0.317 -0.274,0.511l-1,5c-0.065,0.328 0.037,0.667 0.274,0.903c0.236,0.237 0.575,0.339 0.903,0.274l5,-1c0.194,-0.039 0.372,-0.134 0.511,-0.274l10,-10Zm-22.707,9.293l4,0c0.552,0 1,-0.448 1,-1c0,-0.552 -0.448,-1 -1,-1l-4,0c-0.552,0 -1,0.448 -1,1c0,0.552 0.448,1 1,1Zm0,-4l5,-0c0.552,0 1,-0.448 1,-1c0,-0.552 -0.448,-1 -1,-1l-5,-0c-0.552,0 -1,0.448 -1,1c0,0.552 0.448,1 1,1Z"/>
</g>
</svg>